<svg xmlns="http://www.w3.org/2000/svg" width="106.755" height="17.333" viewBox="0 0 106.755 17.333">
  <path id="Path_2219" data-name="Path 2219" d="M29.039,16.1c.7,1.457.433,1.315-.523,1.055C17.732,14.236,8.988,14.287,5.062,14.989a16.21,16.21,0,0,1-2.578,1.534C1.2,17.113,1.176,17.088.4,16c-.566-.8-.525-.905.052-1.307a10.684,10.684,0,0,1,3.821-1.357A113.762,113.762,0,0,1,17.532,2.882c1.5-1.022,2.7-1.762,3.436-2.166A4.024,4.024,0,0,1,24.685.262c1.934.415,1.824.74.733,1.508-.723.508-1.361.924-2.147,1.408-1.043.642-1.054.584-2.57.555A108.763,108.763,0,0,0,7.889,12.879a56.88,56.88,0,0,1,9.262.03,3.6,3.6,0,0,1-.291-.742c-.431-1.282-.421-1.116.04-1.621a61.834,61.834,0,0,1,5.52-5.122c.746-.565,1.047-.945,1.767.339.642,1.145.668,1.244-.118,1.847s-5.01,4.106-5.913,5.086a2.274,2.274,0,0,1-.293.273,62.524,62.524,0,0,1,8.715,1.367c1.873.441,1.794.365,2.462,1.76m10.928-5.112a23.854,23.854,0,0,1-5.2,2.6,2.417,2.417,0,0,1-3.006-.886c-.51-.793-.593-1.255-.118-1.922.258-.362.536-.724.83-1.079-.716-.089-2-.228-3.121-.456-1.725,1.635-2.955,2.842-4.132,4.022-.345.347-.636.495-1.178-.3-.588-.867-.552-.969-.118-1.465,1.085-1.241,1.786-1.919,2.806-2.945a2.271,2.271,0,0,1-1.671-2c-.078-.49.118-.527.471-.377.247.105,1.42.464,2.8.814,1.253-1.188,3.208-2.907,4.265-3.8C34.912,1.233,36.521.14,38.643.026c1.646-.088,2.56.727,2.651,2.112A2.521,2.521,0,0,1,40.612,4c-.417.31-.82.15-1.021-.339-.456-1.111-.85-1.552-2.794-.314a55.628,55.628,0,0,0-5.654,4.269c.714.137,2.011.282,2.915.386A13.889,13.889,0,0,1,38.14,5.26c2.277-.905,3.577.062,4.028.567a2.165,2.165,0,0,1-.747,3.182,13.189,13.189,0,0,1-6.065.9,10.16,10.16,0,0,0-1.333,1.663.062.062,0,0,0,.066.092,48.808,48.808,0,0,0,5.363-1.245c.981-.263,1.066.186.514.562m-2.886-3a18.465,18.465,0,0,0,2.771-.329c1.595-.368.736-1.818-.7-.956a9.805,9.805,0,0,0-2.07,1.285M24.592,4.426c.013.262-.108.771,1,.567,2.409-.443,2.39-.443,3.216-.628s.856-.3.714-1.373c-.106-.8-.326-.883-1.086-.685a18.512,18.512,0,0,0-3.316,1.314c-.522.242-.55.383-.529.8M106.52,6.844c-.216.05-.657.134-1.138.217-1.092.186-.973.182-1.473-.4-1.256-.208-2.248.115-1.937.754.386.791,2.976,1.991,2.976,3.952,0,1.408-2.22,2.25-4.524,2.406a2.61,2.61,0,0,1-2.595-.9c-.59-.673-1.239-1.537-.151-1.39,1.16.157,4.36.227,4.232-.631-.144-.974-2.227-1.515-2.718-2.87-1.063.378-2.289.761-3.126,1.147a2.016,2.016,0,0,1,.86,1.551c0,1.608-1.693,3.6-7.007,2.982-.633-.075-.768-.18-1.135-.934s-.3-1.056.5-1.5c.976-.542,2.406-1.232,3.987-1.918a6.146,6.146,0,0,1-.889-.783c-3.988,2.688-7.03,5.188-9.215,5.216-.889,0-1.329-1.261-1.459-2.23L77.069,13.6c-.492.264-.645.254-1.216-.173s-.848-.686-.871-.965a.764.764,0,0,1,.243-.544c.471-.552,1.376-1.587,2.893-3.646a31.627,31.627,0,0,0-7.679,5.1c-.628.6-.7.553-1.384-.2-.384-.425-.561-.654-.563-.874a1.008,1.008,0,0,1,.3-.586,43.777,43.777,0,0,1,4.685-4.6c-3.027,2.076-7.469,4.846-9.272,5.923a12.594,12.594,0,0,1-1.177.621l-.141.065-.043.014h0c-.538.155-.8-.072-1.312-.532-.681-.6-.811-.779-.315-1.307C62,11.069,63.5,9.557,65.442,7.575c-3.158,2.11-8.577,5.193-9.755,5.825-1.16.622-1.361.453-2.042-.2s-.862-1.081-.366-1.609c1.989-2.112,5.655-5.831,6.386-6.383s.792-.276,1.363.653c.523.855.681,1.006.156,1.458S59.3,8.977,57.676,10.586c3.225-1.779,7.15-3.8,9.38-5.063l-1.131.145c-.611.1-1.327.215-1.753.277a.192.192,0,0,1-.215-.25A2.012,2.012,0,0,1,65.209,4.6c.942-.243,1.842-.457,2.682-.643.415-.1.874-.2,1.381-.308,1.2-1.193,2.572-2.5,2.882-2.766.332-.319.563-.533.659-.6.733-.553.79-.276,1.361.654.431.7.606.931.364,1.243,0,0-.39.385-.74.714a94.362,94.362,0,0,1,15.487-.65c.992.066,1.151.3,1.727,1s1.01,1.141-.157,1.055a95.983,95.983,0,0,0-14.507.042l-.75.064c-1.336.118-2.721.273-3.99.444-2.151,2.011-5.266,5.009-6.352,6.086h0L75.535,5.124c.56-.358.738-.355,1.391.35a1.084,1.084,0,0,1,.378.793,1.185,1.185,0,0,1-.21.5,11.19,11.19,0,0,1-1,.959,43.3,43.3,0,0,1,5.111-2.775c.357-.111.481-.113,1.017.414s.521.631.05,1.451c-.454.791-2.24,3.183-2.82,3.938.244-.092,1.384-.476,2.292-.8l.3-.8c.906-1.99,2.929-4.258,5.927-4.258,1.466,0,2.668.52,2.668,2.077,0,1.237-3.945,2.816-6.5,3.642a1.236,1.236,0,0,0,0,.674c.16.245.548.1,1.11-.124.9-.364,4.792-2.248,6.657-3.293l-.1-.157c-.666-1.512.646-2.81,4.009-2.81a5.853,5.853,0,0,1,1.919.329c.517.218.509.227.609.849.118.728-.118.968-.786.855a14.189,14.189,0,0,0-2.051-.078c-1.595,0-1.756.491-.317,1.633,1.2-.477,2.729-.926,3.9-1.275a1.05,1.05,0,0,1,.023-.311c.309-1.308,2.039-2.145,4-1.992,3.245.25,3.271.325,3.428.854a5.926,5.926,0,0,1,.161.679c.062.339.091.339-.194.4M84.646,8.962c3.611-1.426,5.376-2.443,4.066-2.695-1.148-.22-3.045,1.221-4.066,2.695m9.494,1.176c-1.131.6-2.985,1.487-3.95,2.084,3.5.278,4.817-1.177,3.95-2.084M55.6,8c.843.034.824-.257.4-1.322-.366-.924-.459-1-.983-.994-1.021.008-2.382.066-3.881.179a40.518,40.518,0,0,1,3.088-2.653l1.39-.935a80.312,80.312,0,0,1,11.537-.045c1.167.085.733-.351.157-1.055s-.735-.939-1.727-1A74.557,74.557,0,0,0,57.848.1c-3.462.288-6.8.749-10.163,1.33-1.041.182-.883.365-.482,1.153a2.254,2.254,0,0,0,.367.55.775.775,0,0,0,.778.213c.714-.105,1.485-.24,2.306-.382l.149-.028c-.593.492-1.13,1-1.13,1-.821.693-1.7,1.492-2.606,2.35-.952.128-1.892.279-2.778.453s-.8.241-.494,1.1c.26.723.416.926.9.779l.008.01a66.118,66.118,0,0,0-4.944,5.623c-.456.6-.528.907-.121,2,.483,1.292.671,1.351,1.243.628C42.54,14.777,45.7,11.24,48.8,8.137A59.333,59.333,0,0,1,55.6,8m8.564-5.489a15.454,15.454,0,0,0-2.7,1.08c-.491.227-.51.407-.491.8.012.247.036.878,1.069.641,1.84-.423,1.721-.388,2.476-.591s.8-.285.671-1.29c-.1-.748-.307-.83-1.021-.644" transform="translate(0 0)" fill="#1c1f1c"/>
</svg>
